<mxfile host="65bd71144e">
    <diagram name="Page-1" id="f8gqKHjJQRfd-LbSlMF7">
        <mxGraphModel dx="10710" dy="3800" grid="1" gridSize="10" guides="1" tooltips="1" connect="1" arrows="1" fold="1" page="1" pageScale="1" pageWidth="850" pageHeight="1100" math="0" shadow="0">
            <root>
                <mxCell id="0"/>
                <mxCell id="1" parent="0"/>
                <mxCell id="zfM-Glmw8c7TbxvOH94Y-2" value="Text" style="text;html=1;align=center;verticalAlign=middle;whiteSpace=wrap;rounded=0;" parent="1" vertex="1">
                    <mxGeometry x="400" y="390" width="60" height="30" as="geometry"/>
                </mxCell>
                <mxCell id="dMX5WDR8nYnZyjJgWT_x-1" value="" style="rounded=0;whiteSpace=wrap;html=1;strokeColor=light-dark(#000000,#000000);fillColor=light-dark(#FFFFFF,#FFFFFF);strokeWidth=2;" parent="1" vertex="1">
                    <mxGeometry x="-6590" y="-810" width="3450" height="3080" as="geometry"/>
                </mxCell>
                <mxCell id="cdYxZSBgBSM4qdJwfmou-1" value="" style="rounded=0;whiteSpace=wrap;html=1;fillColor=light-dark(#FFFFFF,#FFFFFF);strokeColor=light-dark(#000000,#000000);strokeWidth=4;" parent="1" vertex="1">
                    <mxGeometry x="-5540" y="-690" width="1260" height="1830" as="geometry"/>
                </mxCell>
                <mxCell id="cdYxZSBgBSM4qdJwfmou-2" value="Actor" style="shape=umlActor;verticalLabelPosition=bottom;verticalAlign=top;html=1;outlineConnect=0;fillColor=light-dark(#FFFFFF,#FFFFFF);strokeColor=light-dark(#000000,#000000);strokeWidth=4;" parent="1" vertex="1">
                    <mxGeometry x="-6180" y="-70" width="200" height="270" as="geometry"/>
                </mxCell>
                <mxCell id="cdYxZSBgBSM4qdJwfmou-3" value="Actor" style="shape=umlActor;verticalLabelPosition=bottom;verticalAlign=top;html=1;outlineConnect=0;strokeColor=light-dark(#000000,#000000);fillColor=light-dark(#FFFFFF,#FFFFFF);strokeWidth=4;" parent="1" vertex="1">
                    <mxGeometry x="-3970" y="-460" width="250" height="310" as="geometry"/>
                </mxCell>
                <mxCell id="cdYxZSBgBSM4qdJwfmou-4" value="Actor" style="shape=umlActor;verticalLabelPosition=bottom;verticalAlign=top;html=1;outlineConnect=0;strokeColor=light-dark(#000000,#000000);fillColor=light-dark(#FFFFFF,#FFFFFF);strokeWidth=4;" parent="1" vertex="1">
                    <mxGeometry x="-3900" y="470" width="250" height="310" as="geometry"/>
                </mxCell>
                <mxCell id="cdYxZSBgBSM4qdJwfmou-5" value="Text" style="text;html=1;align=center;verticalAlign=middle;whiteSpace=wrap;rounded=0;" parent="1" vertex="1">
                    <mxGeometry x="-6170" y="260" width="60" height="30" as="geometry"/>
                </mxCell>
                <mxCell id="cdYxZSBgBSM4qdJwfmou-7" value="&lt;font style=&quot;color: light-dark(rgb(0, 0, 0), rgb(0, 0, 0)); font-size: 39px;&quot;&gt;Người Tham Gia Gi&lt;/font&gt;&lt;span style=&quot;color: light-dark(rgb(0, 0, 0), rgb(0, 0, 0)); font-size: 39px; background-color: transparent;&quot;&gt;ao Thông&lt;/span&gt;" style="text;html=1;align=center;verticalAlign=middle;whiteSpace=wrap;rounded=0;" parent="1" vertex="1">
                    <mxGeometry x="-6400" y="210" width="660" height="100" as="geometry"/>
                </mxCell>
                <mxCell id="cdYxZSBgBSM4qdJwfmou-8" value="&lt;font style=&quot;color: light-dark(rgb(0, 0, 0), rgb(0, 0, 0));&quot;&gt;&lt;span style=&quot;font-size: 39px;&quot;&gt;Cán bộ quản lí&lt;/span&gt;&lt;/font&gt;" style="text;html=1;align=center;verticalAlign=middle;whiteSpace=wrap;rounded=0;" parent="1" vertex="1">
                    <mxGeometry x="-4170" y="-160" width="660" height="100" as="geometry"/>
                </mxCell>
                <mxCell id="cdYxZSBgBSM4qdJwfmou-9" value="&lt;font style=&quot;color: light-dark(rgb(0, 0, 0), rgb(0, 0, 0));&quot;&gt;&lt;span style=&quot;font-size: 39px;&quot;&gt;Cơ quan cao cấp&lt;/span&gt;&lt;/font&gt;&lt;div&gt;&lt;font style=&quot;color: light-dark(rgb(0, 0, 0), rgb(0, 0, 0));&quot;&gt;&lt;span style=&quot;font-size: 39px;&quot;&gt;&lt;br&gt;&lt;/span&gt;&lt;/font&gt;&lt;/div&gt;" style="text;html=1;align=center;verticalAlign=middle;whiteSpace=wrap;rounded=0;" parent="1" vertex="1">
                    <mxGeometry x="-4105" y="830" width="660" height="100" as="geometry"/>
                </mxCell>
                <mxCell id="cdYxZSBgBSM4qdJwfmou-10" value="" style="ellipse;whiteSpace=wrap;html=1;fillColor=light-dark(#FFFFFF,#FFFFFF);strokeColor=light-dark(#000000,#000000);strokeWidth=4;" parent="1" vertex="1">
                    <mxGeometry x="-5470" y="-330" width="430" height="120" as="geometry"/>
                </mxCell>
                <mxCell id="cdYxZSBgBSM4qdJwfmou-11" value="&lt;font style=&quot;color: light-dark(rgb(0, 0, 0), rgb(0, 0, 0)); font-size: 35px;&quot;&gt;Báo cáo vi phạm&lt;/font&gt;" style="text;html=1;align=center;verticalAlign=middle;whiteSpace=wrap;rounded=0;strokeWidth=4;" parent="1" vertex="1">
                    <mxGeometry x="-5390" y="-320" width="240" height="100" as="geometry"/>
                </mxCell>
                <mxCell id="cdYxZSBgBSM4qdJwfmou-12" value="" style="ellipse;whiteSpace=wrap;html=1;fillColor=light-dark(#FFFFFF,#FFFFFF);strokeColor=light-dark(#000000,#000000);strokeWidth=4;" parent="1" vertex="1">
                    <mxGeometry x="-5470" y="-70" width="430" height="120" as="geometry"/>
                </mxCell>
                <mxCell id="cdYxZSBgBSM4qdJwfmou-13" value="&lt;font style=&quot;color: light-dark(rgb(0, 0, 0), rgb(0, 0, 0)); font-size: 35px;&quot;&gt;Khiếu nại vi phạm&lt;/font&gt;" style="text;html=1;align=center;verticalAlign=middle;whiteSpace=wrap;rounded=0;" parent="1" vertex="1">
                    <mxGeometry x="-5390" y="-60" width="260" height="100" as="geometry"/>
                </mxCell>
                <mxCell id="cdYxZSBgBSM4qdJwfmou-14" value="" style="ellipse;whiteSpace=wrap;html=1;fillColor=light-dark(#FFFFFF,#FFFFFF);strokeColor=light-dark(#000000,#000000);strokeWidth=4;" parent="1" vertex="1">
                    <mxGeometry x="-5460" y="180" width="430" height="120" as="geometry"/>
                </mxCell>
                <mxCell id="cdYxZSBgBSM4qdJwfmou-15" value="&lt;font style=&quot;color: light-dark(rgb(0, 0, 0), rgb(0, 0, 0)); font-size: 35px;&quot;&gt;Nộp phạt&lt;/font&gt;&lt;div style=&quot;font-size: 35px;&quot;&gt;&lt;font style=&quot;font-size: 35px; color: light-dark(rgb(0, 0, 0), rgb(0, 0, 0));&quot;&gt;&lt;br&gt;&lt;/font&gt;&lt;/div&gt;" style="text;html=1;align=center;verticalAlign=middle;whiteSpace=wrap;rounded=0;" parent="1" vertex="1">
                    <mxGeometry x="-5375" y="210" width="240" height="100" as="geometry"/>
                </mxCell>
                <mxCell id="cdYxZSBgBSM4qdJwfmou-16" value="" style="ellipse;whiteSpace=wrap;html=1;fillColor=light-dark(#FFFFFF,#FFFFFF);strokeColor=light-dark(#000000,#000000);strokeWidth=3;" parent="1" vertex="1">
                    <mxGeometry x="-4800" y="-450" width="430" height="120" as="geometry"/>
                </mxCell>
                <mxCell id="cdYxZSBgBSM4qdJwfmou-17" value="&lt;p style=&quot;line-height: 260%;&quot;&gt;&lt;font style=&quot;color: light-dark(rgb(0, 0, 0), rgb(0, 0, 0)); font-size: 38px;&quot;&gt;Giám sát và quản lí vi phạm&lt;/font&gt;&lt;/p&gt;" style="text;html=1;align=center;verticalAlign=middle;whiteSpace=wrap;rounded=0;strokeWidth=4;" parent="1" vertex="1">
                    <mxGeometry x="-4730" y="-435" width="310" height="90" as="geometry"/>
                </mxCell>
                <mxCell id="cdYxZSBgBSM4qdJwfmou-18" value="" style="ellipse;whiteSpace=wrap;html=1;fillColor=light-dark(#FFFFFF,#FFFFFF);strokeColor=light-dark(#000000,#000000);strokeWidth=4;" parent="1" vertex="1">
                    <mxGeometry x="-4780" y="-220" width="430" height="120" as="geometry"/>
                </mxCell>
                <mxCell id="cdYxZSBgBSM4qdJwfmou-19" value="&lt;p style=&quot;line-height: 170%;&quot;&gt;&lt;font style=&quot;color: light-dark(rgb(0, 0, 0), rgb(0, 0, 0)); font-size: 37px;&quot;&gt;Xử lý các đơn khiế nại. tố cáo&lt;/font&gt;&lt;/p&gt;" style="text;html=1;align=center;verticalAlign=middle;whiteSpace=wrap;rounded=0;" parent="1" vertex="1">
                    <mxGeometry x="-4710" y="-200" width="310" height="90" as="geometry"/>
                </mxCell>
                <mxCell id="cdYxZSBgBSM4qdJwfmou-20" value="" style="ellipse;whiteSpace=wrap;html=1;fillColor=light-dark(#FFFFFF,#FFFFFF);strokeColor=light-dark(#000000,#000000);strokeWidth=4;" parent="1" vertex="1">
                    <mxGeometry x="-4790" y="40" width="430" height="120" as="geometry"/>
                </mxCell>
                <mxCell id="cdYxZSBgBSM4qdJwfmou-21" value="&lt;font style=&quot;color: light-dark(rgb(0, 0, 0), rgb(0, 0, 0)); font-size: 34px;&quot;&gt;Xử lý các vi phạm được AI trả về&lt;/font&gt;" style="text;html=1;align=center;verticalAlign=middle;whiteSpace=wrap;rounded=0;" parent="1" vertex="1">
                    <mxGeometry x="-4710" y="50" width="300" height="90" as="geometry"/>
                </mxCell>
                <mxCell id="cdYxZSBgBSM4qdJwfmou-24" value="" style="ellipse;whiteSpace=wrap;html=1;fillColor=light-dark(#FFFFFF,#FFFFFF);strokeColor=light-dark(#000000,#000000);strokeWidth=4;" parent="1" vertex="1">
                    <mxGeometry x="-4805" y="470" width="430" height="120" as="geometry"/>
                </mxCell>
                <mxCell id="cdYxZSBgBSM4qdJwfmou-25" value="&lt;font style=&quot;color: light-dark(rgb(0, 0, 0), rgb(0, 0, 0)); font-size: 34px;&quot;&gt;Quản lí cán bộ quản lí&lt;/font&gt;" style="text;html=1;align=center;verticalAlign=middle;whiteSpace=wrap;rounded=0;" parent="1" vertex="1">
                    <mxGeometry x="-4720" y="470" width="240" height="100" as="geometry"/>
                </mxCell>
                <mxCell id="cdYxZSBgBSM4qdJwfmou-28" value="" style="endArrow=none;html=1;rounded=0;exitX=0.75;exitY=0.1;exitDx=0;exitDy=0;exitPerimeter=0;entryX=0;entryY=1;entryDx=0;entryDy=0;strokeColor=light-dark(#000000,#000000);strokeWidth=4;" parent="1" source="cdYxZSBgBSM4qdJwfmou-2" target="cdYxZSBgBSM4qdJwfmou-10" edge="1">
                    <mxGeometry width="50" height="50" relative="1" as="geometry">
                        <mxPoint x="-4880" y="190" as="sourcePoint"/>
                        <mxPoint x="-4830" y="140" as="targetPoint"/>
                    </mxGeometry>
                </mxCell>
                <mxCell id="cdYxZSBgBSM4qdJwfmou-29" value="" style="endArrow=none;html=1;rounded=0;exitX=1;exitY=0.3333333333333333;exitDx=0;exitDy=0;exitPerimeter=0;entryX=0;entryY=1;entryDx=0;entryDy=0;strokeColor=light-dark(#000000,#000000);strokeWidth=4;" parent="1" source="cdYxZSBgBSM4qdJwfmou-2" target="cdYxZSBgBSM4qdJwfmou-12" edge="1">
                    <mxGeometry width="50" height="50" relative="1" as="geometry">
                        <mxPoint x="-5700" y="85" as="sourcePoint"/>
                        <mxPoint x="-5077" y="-100" as="targetPoint"/>
                    </mxGeometry>
                </mxCell>
                <mxCell id="cdYxZSBgBSM4qdJwfmou-30" value="" style="endArrow=none;html=1;rounded=0;exitX=0.5;exitY=0.5;exitDx=0;exitDy=0;exitPerimeter=0;entryX=0;entryY=0.5;entryDx=0;entryDy=0;strokeColor=light-dark(#000000,#000000);strokeWidth=4;" parent="1" source="cdYxZSBgBSM4qdJwfmou-2" target="cdYxZSBgBSM4qdJwfmou-14" edge="1">
                    <mxGeometry width="50" height="50" relative="1" as="geometry">
                        <mxPoint x="-5300" y="365" as="sourcePoint"/>
                        <mxPoint x="-4677" y="180" as="targetPoint"/>
                    </mxGeometry>
                </mxCell>
                <mxCell id="cdYxZSBgBSM4qdJwfmou-31" value="" style="endArrow=none;html=1;rounded=0;exitX=1;exitY=0.5;exitDx=0;exitDy=0;strokeColor=light-dark(#000000,#000000);strokeWidth=4;" parent="1" source="cdYxZSBgBSM4qdJwfmou-16" edge="1">
                    <mxGeometry width="50" height="50" relative="1" as="geometry">
                        <mxPoint x="-4370" y="195" as="sourcePoint"/>
                        <mxPoint x="-3860" y="-305" as="targetPoint"/>
                    </mxGeometry>
                </mxCell>
                <mxCell id="cdYxZSBgBSM4qdJwfmou-32" value="" style="endArrow=none;html=1;rounded=0;exitX=0.705;exitY=0;exitDx=0;exitDy=0;entryX=0.5;entryY=0.5;entryDx=0;entryDy=0;strokeColor=light-dark(#000000,#000000);strokeWidth=4;entryPerimeter=0;exitPerimeter=0;" parent="1" source="cdYxZSBgBSM4qdJwfmou-18" target="cdYxZSBgBSM4qdJwfmou-3" edge="1">
                    <mxGeometry width="50" height="50" relative="1" as="geometry">
                        <mxPoint x="-4150" y="-45" as="sourcePoint"/>
                        <mxPoint x="-3527" y="-230" as="targetPoint"/>
                    </mxGeometry>
                </mxCell>
                <mxCell id="cdYxZSBgBSM4qdJwfmou-33" value="" style="endArrow=none;html=1;rounded=0;exitX=0.75;exitY=0;exitDx=0;exitDy=0;entryX=0.5;entryY=0.5;entryDx=0;entryDy=0;strokeColor=light-dark(#000000,#000000);strokeWidth=4;entryPerimeter=0;" parent="1" source="cdYxZSBgBSM4qdJwfmou-21" target="cdYxZSBgBSM4qdJwfmou-3" edge="1">
                    <mxGeometry width="50" height="50" relative="1" as="geometry">
                        <mxPoint x="-4050" y="135" as="sourcePoint"/>
                        <mxPoint x="-3427" y="-50" as="targetPoint"/>
                    </mxGeometry>
                </mxCell>
                <mxCell id="cdYxZSBgBSM4qdJwfmou-36" value="" style="endArrow=none;html=1;rounded=0;exitX=1;exitY=1;exitDx=0;exitDy=0;entryX=0.5;entryY=0.5;entryDx=0;entryDy=0;strokeColor=light-dark(#000000,#000000);strokeWidth=4;entryPerimeter=0;" parent="1" source="cdYxZSBgBSM4qdJwfmou-24" target="cdYxZSBgBSM4qdJwfmou-4" edge="1">
                    <mxGeometry width="50" height="50" relative="1" as="geometry">
                        <mxPoint x="-4170" y="555" as="sourcePoint"/>
                        <mxPoint x="-3547" y="370" as="targetPoint"/>
                    </mxGeometry>
                </mxCell>
                <mxCell id="2" value="&lt;p style=&quot;line-height: 170%; font-size: 44px;&quot;&gt;&lt;span style=&quot;background-color: rgb(201, 201, 201);&quot;&gt;&lt;font color=&quot;#000000&quot;&gt;Use case&amp;nbsp;&lt;/font&gt;&lt;/span&gt;&lt;/p&gt;" style="text;strokeColor=none;align=center;fillColor=none;html=1;verticalAlign=middle;whiteSpace=wrap;rounded=0;" vertex="1" parent="1">
                    <mxGeometry x="-5000" y="-690" width="200" height="100" as="geometry"/>
                </mxCell>
                <mxCell id="3" value="" style="ellipse;whiteSpace=wrap;html=1;fillColor=light-dark(#FFFFFF,#FFFFFF);strokeColor=light-dark(#000000,#000000);strokeWidth=4;" vertex="1" parent="1">
                    <mxGeometry x="-5440" y="480" width="430" height="120" as="geometry"/>
                </mxCell>
                <mxCell id="5" value="&lt;font style=&quot;font-size: 36px;&quot; color=&quot;#000000&quot;&gt;Đăng ký phương tiện&lt;/font&gt;" style="text;html=1;align=center;verticalAlign=middle;whiteSpace=wrap;rounded=0;" vertex="1" parent="1">
                    <mxGeometry x="-5350" y="500" width="240" height="100" as="geometry"/>
                </mxCell>
                <mxCell id="12" value="" style="edgeStyle=none;html=1;fontSize=34;fontColor=#000000;" edge="1" parent="1" source="6" target="7">
                    <mxGeometry relative="1" as="geometry"/>
                </mxCell>
                <mxCell id="6" value="" style="ellipse;whiteSpace=wrap;html=1;fillColor=light-dark(#FFFFFF,#FFFFFF);strokeColor=light-dark(#000000,#000000);strokeWidth=4;" vertex="1" parent="1">
                    <mxGeometry x="-4840" y="240" width="450" height="150" as="geometry"/>
                </mxCell>
                <mxCell id="7" value="&lt;font style=&quot;font-size: 36px;&quot; color=&quot;#000000&quot;&gt;QUản lý hệ thống Camera và vi phạm&lt;/font&gt;" style="text;html=1;align=center;verticalAlign=middle;whiteSpace=wrap;rounded=0;" vertex="1" parent="1">
                    <mxGeometry x="-4805" y="240" width="410" height="130" as="geometry"/>
                </mxCell>
                <mxCell id="8" style="edgeStyle=none;html=1;exitX=0.5;exitY=1;exitDx=0;exitDy=0;entryX=0.5;entryY=0;entryDx=0;entryDy=0;fontSize=34;fontColor=#000000;" edge="1" parent="1" source="7" target="7">
                    <mxGeometry relative="1" as="geometry"/>
                </mxCell>
                <mxCell id="13" value="" style="endArrow=none;html=1;rounded=0;exitX=1;exitY=0.5;exitDx=0;exitDy=0;entryX=0.5;entryY=0;entryDx=0;entryDy=0;strokeColor=light-dark(#000000,#000000);strokeWidth=4;entryPerimeter=0;" edge="1" parent="1" source="7" target="cdYxZSBgBSM4qdJwfmou-4">
                    <mxGeometry width="50" height="50" relative="1" as="geometry">
                        <mxPoint x="-4390" y="435" as="sourcePoint"/>
                        <mxPoint x="-3750" y="80" as="targetPoint"/>
                    </mxGeometry>
                </mxCell>
                <mxCell id="14" value="" style="endArrow=none;html=1;rounded=0;exitX=0.5;exitY=0.5;exitDx=0;exitDy=0;entryX=0;entryY=0;entryDx=0;entryDy=0;strokeColor=light-dark(#000000,#000000);strokeWidth=4;exitPerimeter=0;" edge="1" parent="1" source="cdYxZSBgBSM4qdJwfmou-2" target="5">
                    <mxGeometry width="50" height="50" relative="1" as="geometry">
                        <mxPoint x="-6070" y="825" as="sourcePoint"/>
                        <mxPoint x="-5430" y="470" as="targetPoint"/>
                    </mxGeometry>
                </mxCell>
            </root>
        </mxGraphModel>
    </diagram>
</mxfile>